<svg width="135" height="36" viewBox="0 0 135 36" fill="none" xmlns="http://www.w3.org/2000/svg">
<path d="M47.7812 16.7906C47.7812 14.3492 48.4128 12.4677 49.6758 11.1461C50.9323 9.83101 52.6152 9.17346 54.7246 9.17346C56.4108 9.17346 57.8366 9.59338 59.002 10.4332C60.1608 11.2731 60.8542 12.3864 61.082 13.7731H58.3574C58.1686 13.0634 57.7552 12.5068 57.1172 12.1031C56.4792 11.693 55.7012 11.4879 54.7832 11.4879C53.5137 11.4879 52.485 11.8623 51.6973 12.611C50.9225 13.3466 50.5352 14.346 50.5352 15.609V17.8942C50.5352 19.0856 50.903 20.0491 51.6387 20.7848C52.3874 21.5335 53.3672 21.9078 54.5781 21.9078C55.724 21.9078 56.6647 21.5693 57.4004 20.8922C58.1426 20.2086 58.543 19.3004 58.6016 18.1676H54.041V16.0485H61.4824V23.9293H59.3438L59.1582 21.7321H59.0215C58.5592 22.5133 57.9049 23.109 57.0586 23.5192C56.2122 23.9228 55.2454 24.1246 54.1582 24.1246C52.1725 24.1246 50.6068 23.4736 49.4609 22.1715C48.3411 20.8759 47.7812 19.0823 47.7812 16.7906ZM63.6211 18.6266C63.6211 16.9209 64.0866 15.583 65.0176 14.6129C65.9681 13.6233 67.2344 13.1285 68.8164 13.1285C70.3789 13.1285 71.6387 13.6168 72.5957 14.5934C73.5592 15.5765 74.041 16.9209 74.041 18.6266C74.041 20.2998 73.5723 21.6344 72.6348 22.6305C71.7168 23.6266 70.444 24.1246 68.8164 24.1246C67.2279 24.1246 65.9616 23.6331 65.0176 22.65C64.0866 21.68 63.6211 20.3388 63.6211 18.6266ZM66.1406 17.8258V19.486C66.1406 20.2998 66.3848 20.9378 66.873 21.4C67.3613 21.8623 68.0091 22.0934 68.8164 22.0934C69.6302 22.0934 70.2812 21.8655 70.7695 21.4098C71.2578 20.9476 71.502 20.3063 71.502 19.486V17.8258C71.502 17.0185 71.2546 16.374 70.7598 15.8922C70.2715 15.4104 69.6237 15.1696 68.8164 15.1696C68.0026 15.1696 67.3516 15.4104 66.8633 15.8922C66.3815 16.374 66.1406 17.0185 66.1406 17.8258ZM78.2988 23.9293L74.5781 13.3336H77.2734L78.7773 18.2457L79.7344 21.6539H79.8516L80.7988 18.2653L82.293 13.3336H84.998L81.3164 23.9293H78.2988ZM85.5352 18.6071C85.5352 16.9013 85.9909 15.5634 86.9023 14.5934C87.8203 13.6168 89.0638 13.1285 90.6328 13.1285C92.1042 13.1285 93.2826 13.5615 94.168 14.4274C95.0664 15.2867 95.5156 16.4749 95.5156 17.9918C95.5156 18.4736 95.4863 18.874 95.4277 19.193H88.0742V19.7692C88.0742 20.4983 88.3086 21.0843 88.7773 21.527C89.2526 21.9697 89.8776 22.191 90.6523 22.191C91.2708 22.191 91.7949 22.0543 92.2246 21.7809C92.6608 21.5009 92.957 21.1298 93.1133 20.6676H95.5742C95.3464 21.7158 94.793 22.5556 93.9141 23.1871C93.0026 23.8121 91.9154 24.1246 90.6523 24.1246C89.0508 24.1246 87.7975 23.6331 86.8926 22.65C85.9876 21.6474 85.5352 20.2998 85.5352 18.6071ZM88.0742 17.2887V17.4938H93.0352V17.2106C93.0352 16.5595 92.8105 16.0387 92.3613 15.6481C91.9186 15.2509 91.3294 15.0524 90.5938 15.0524C89.8385 15.0524 89.2298 15.2574 88.7676 15.6676C88.3053 16.0778 88.0742 16.6181 88.0742 17.2887ZM99.9004 13.3336H103.533V15.3453H100.232V23.9293H97.7617V15.4528C97.7617 14.8994 97.8724 14.4306 98.0938 14.0465C98.3672 13.5712 98.9694 13.3336 99.9004 13.3336ZM107.674 23.9293H105.203V13.3336H107.381L107.674 15.2867H107.84C108.172 14.5966 108.644 14.066 109.256 13.6949C109.868 13.3173 110.568 13.1285 111.355 13.1285C112.534 13.1285 113.439 13.5192 114.07 14.3004C114.702 15.0752 115.018 16.1461 115.018 17.5133V23.9293H112.518V17.7672C112.518 16.0745 111.792 15.2281 110.34 15.2281C109.533 15.2281 108.885 15.5179 108.396 16.0973C107.915 16.6702 107.674 17.4222 107.674 18.3531V23.9293ZM124.207 23.9293H121.053L125.447 16.5856L121.053 9.34924H124.207L125.867 12.2301L127.391 15.0524H127.527L129.109 12.1715L130.691 9.34924H133.807L129.451 16.6246L133.885 23.9293H130.711L129.246 21.4489L127.508 18.3531H127.391L125.594 21.5465L124.207 23.9293Z" fill="black"/>
<path fill-rule="evenodd" clip-rule="evenodd" d="M0 8.74981L15.1551 0L22.6736 5.31248V5.3282L15.5 1.18652L1.2 9.44263V25.9548L15.5 34.211L29.8 25.9548V18.2529L30.8562 26.7307L15.5 35.5966L0 26.6477V8.74981Z" fill="black"/>
</svg>
