<svg width="135" height="36" viewBox="0 0 135 36" fill="none" xmlns="http://www.w3.org/2000/svg">
<path d="M47.7812 16.8613C47.7812 14.4199 48.4128 12.5384 49.6758 11.2168C50.9323 9.90169 52.6152 9.24414 54.7246 9.24414C56.4108 9.24414 57.8366 9.66406 59.002 10.5039C60.1608 11.3438 60.8542 12.457 61.082 13.8438H58.3574C58.1686 13.1341 57.7552 12.5775 57.1172 12.1738C56.4792 11.7637 55.7012 11.5586 54.7832 11.5586C53.5137 11.5586 52.485 11.9329 51.6973 12.6816C50.9225 13.4173 50.5352 14.4167 50.5352 15.6797V17.9648C50.5352 19.1562 50.903 20.1198 51.6387 20.8555C52.3874 21.6042 53.3672 21.9785 54.5781 21.9785C55.724 21.9785 56.6647 21.64 57.4004 20.9629C58.1426 20.2793 58.543 19.3711 58.6016 18.2383H54.041V16.1191H61.4824V24H59.3438L59.1582 21.8027H59.0215C58.5592 22.584 57.9049 23.1797 57.0586 23.5898C56.2122 23.9935 55.2454 24.1953 54.1582 24.1953C52.1725 24.1953 50.6068 23.5443 49.4609 22.2422C48.3411 20.9466 47.7812 19.153 47.7812 16.8613ZM63.6211 18.6973C63.6211 16.9915 64.0866 15.6536 65.0176 14.6836C65.9681 13.694 67.2344 13.1992 68.8164 13.1992C70.3789 13.1992 71.6387 13.6875 72.5957 14.6641C73.5592 15.6471 74.041 16.9915 74.041 18.6973C74.041 20.3704 73.5723 21.7051 72.6348 22.7012C71.7168 23.6973 70.444 24.1953 68.8164 24.1953C67.2279 24.1953 65.9616 23.7038 65.0176 22.7207C64.0866 21.7507 63.6211 20.4095 63.6211 18.6973ZM66.1406 17.8965V19.5566C66.1406 20.3704 66.3848 21.0085 66.873 21.4707C67.3613 21.9329 68.0091 22.1641 68.8164 22.1641C69.6302 22.1641 70.2812 21.9362 70.7695 21.4805C71.2578 21.0182 71.502 20.377 71.502 19.5566V17.8965C71.502 17.0892 71.2546 16.4447 70.7598 15.9629C70.2715 15.4811 69.6237 15.2402 68.8164 15.2402C68.0026 15.2402 67.3516 15.4811 66.8633 15.9629C66.3815 16.4447 66.1406 17.0892 66.1406 17.8965ZM78.2988 24L74.5781 13.4043H77.2734L78.7773 18.3164L79.7344 21.7246H79.8516L80.7988 18.3359L82.293 13.4043H84.998L81.3164 24H78.2988ZM85.5352 18.6777C85.5352 16.972 85.9909 15.6341 86.9023 14.6641C87.8203 13.6875 89.0638 13.1992 90.6328 13.1992C92.1042 13.1992 93.2826 13.6322 94.168 14.498C95.0664 15.3574 95.5156 16.5456 95.5156 18.0625C95.5156 18.5443 95.4863 18.9447 95.4277 19.2637H88.0742V19.8398C88.0742 20.569 88.3086 21.1549 88.7773 21.5977C89.2526 22.0404 89.8776 22.2617 90.6523 22.2617C91.2708 22.2617 91.7949 22.125 92.2246 21.8516C92.6608 21.5716 92.957 21.2005 93.1133 20.7383H95.5742C95.3464 21.7865 94.793 22.6263 93.9141 23.2578C93.0026 23.8828 91.9154 24.1953 90.6523 24.1953C89.0508 24.1953 87.7975 23.7038 86.8926 22.7207C85.9876 21.7181 85.5352 20.3704 85.5352 18.6777ZM88.0742 17.3594V17.5645H93.0352V17.2812C93.0352 16.6302 92.8105 16.1094 92.3613 15.7188C91.9186 15.3216 91.3294 15.123 90.5938 15.123C89.8385 15.123 89.2298 15.3281 88.7676 15.7383C88.3053 16.1484 88.0742 16.6888 88.0742 17.3594ZM99.9004 13.4043H103.533V15.416H100.232V24H97.7617V15.5234C97.7617 14.9701 97.8724 14.5013 98.0938 14.1172C98.3672 13.6419 98.9694 13.4043 99.9004 13.4043ZM107.674 24H105.203V13.4043H107.381L107.674 15.3574H107.84C108.172 14.6673 108.644 14.1367 109.256 13.7656C109.868 13.388 110.568 13.1992 111.355 13.1992C112.534 13.1992 113.439 13.5898 114.07 14.3711C114.702 15.1458 115.018 16.2168 115.018 17.584V24H112.518V17.8379C112.518 16.1452 111.792 15.2988 110.34 15.2988C109.533 15.2988 108.885 15.5885 108.396 16.168C107.915 16.7409 107.674 17.4928 107.674 18.4238V24ZM124.207 24H121.053L125.447 16.6562L121.053 9.41992H124.207L125.867 12.3008L127.391 15.123H127.527L129.109 12.2422L130.691 9.41992H133.807L129.451 16.6953L133.885 24H130.711L129.246 21.5195L127.508 18.4238H127.391L125.594 21.6172L124.207 24Z" fill="white"/>
<path fill-rule="evenodd" clip-rule="evenodd" d="M0 8.82046L15.1551 0.0706482L22.6736 5.38313V5.39885L15.5 1.25717L1.2 9.51328V26.0255L15.5 34.2816L29.8 26.0255V18.3236L30.8562 26.8013L15.5 35.6672L0 26.7183V8.82046Z" fill="white"/>
</svg>
